{"title":"WWE.Payback.2017.04.30.HDTV.XviD-FICEK9","magnet":"magnet:?xt=urn:btih:0917c2e79f05b00e8f8a01612e2d042cb4471ab2&dn=WWE.Payback.2017.04.30.HDTV.XviD-FICEK9&tr=udp%3A%2F%2Ftracker.leechers-paradise.org%3A6969&tr=udp%3A%2F%2Fzer0day.ch%3A1337&tr=udp%3A%2F%2Fopen.demonii.com%3A1337&tr=udp%3A%2F%2Ftracker.coppersurfer.tk%3A6969&tr=udp%3A%2F%2Fexodus.desync.com%3A6969","uploader":"FICEK9","categoryP":"video","categoryS":"tv_shows","size":"1564603771","seeders":"1","leechers":"0","description":"\r\n   General\r\n      Complete name : WWE.Payback.2017.04.30.HDTV.XviD-FICEK9.avi\r\n      Format : AVI\r\n      Format/Info : Audio Video Interleave\r\n      Format profile : OpenDML\r\n      File size : 1.46 GiB\r\n      Duration : 2 h 45 min\r\n      Overall bit rate mode : Variable\r\n      Overall bit rate : 1 257 kb/s\r\n      Writing application : Lavf57.41.100\r\n   Video #0\r\n      ID : 0\r\n      Format : xvid\r\n      Codec ID : xvid\r\n      Duration : 2 h 45 min\r\n      Bit rate : 1 132 kb/s\r\n      Width : 624 pixels\r\n      Height : 352 pixels\r\n      Display aspect ratio : 16:9\r\n      Frame rate : 29.970 FPS\r\n      Scan type : Progressive\r\n      Bits/(Pixel*Frame) : 0.172\r\n      Stream size : 1.31 GiB (90%)\r\n   Audio #1\r\n      ID : 1\r\n      Format : MPEG Audio\r\n      Format version : Version 1\r\n      Format profile : Layer 3\r\n      Mode : Joint stereo\r\n      Codec ID : 55\r\n      Codec ID/Hint : MP3\r\n      Duration : 2 h 45 min\r\n      Bit rate mode : Variable\r\n      Bit rate : 110 kb/s\r\n      Channel(s) : 2 channels\r\n      Sampling rate : 48.0 kHz\r\n      Compression mode : Lossy\r\n      Stream size : 130 MiB (9%)\r\n      Alignment : Aligned on interleaves\r\n      Interleave, duration : 24  ms (0.72 video frame)","last_updated":"2017-07-06T12:00:50.410Z","parsed":{"xt":"urn:btih:0917c2e79f05b00e8f8a01612e2d042cb4471ab2","dn":"WWE.Payback.2017.04.30.HDTV.XviD-FICEK9","tr":["udp://exodus.desync.com:6969","udp://open.demonii.com:1337","udp://tracker.coppersurfer.tk:6969","udp://tracker.leechers-paradise.org:6969","udp://zer0day.ch:1337"],"infoHash":"0917c2e79f05b00e8f8a01612e2d042cb4471ab2","infoHashBuffer":{"type":"Buffer","data":[9,23,194,231,159,5,176,14,143,138,1,97,46,45,4,44,180,71,26,178]},"name":"WWE.Payback.2017.04.30.HDTV.XviD-FICEK9","announce":["udp://exodus.desync.com:6969","udp://open.demonii.com:1337","udp://tracker.coppersurfer.tk:6969","udp://tracker.leechers-paradise.org:6969","udp://zer0day.ch:1337"],"urlList":[]}}